<?xml version="1.0" standalone="no"?>
<!DOCTYPE svg PUBLIC "-//W3C//DTD SVG 20010904//EN"
 "http://www.w3.org/TR/2001/REC-SVG-20010904/DTD/svg10.dtd">
<svg version="1.0" xmlns="http://www.w3.org/2000/svg"
 width="177.000000pt" height="174.000000pt" viewBox="0 0 177.000000 174.000000"
 preserveAspectRatio="xMidYMid meet">
<metadata>
Created by potrace 1.10, written by Peter Selinger 2001-2011
</metadata>
<g transform="translate(0.000000,174.000000) scale(0.100000,-0.100000)"
fill="#000000" stroke="none">
<path d="M831 1475 c-18 -8 -43 -15 -55 -15 -38 0 -188 -85 -243 -137 -40 -39
-105 -127 -119 -163 -3 -8 -11 -26 -18 -40 -32 -61 -48 -156 -43 -246 6 -102
23 -167 69 -262 45 -94 158 -205 260 -256 103 -51 113 -48 113 34 0 63 -1 65
-25 63 -14 -1 -49 3 -78 9 -41 9 -59 19 -78 43 -13 18 -24 36 -24 41 0 6 -16
25 -35 44 -42 42 -44 60 -7 60 19 0 44 -16 85 -55 81 -77 140 -86 172 -25 24
46 19 55 -37 70 -64 16 -93 33 -135 78 -65 70 -83 229 -35 320 16 30 22 60 22
103 0 106 24 123 112 79 60 -30 62 -30 228 -30 99 0 171 4 175 10 6 10 91 50
106 50 26 0 39 -35 39 -104 0 -41 5 -77 11 -83 16 -16 49 -112 49 -141 0 -13
-8 -56 -17 -94 -23 -96 -79 -156 -173 -184 -59 -18 -65 -22 -61 -44 2 -14 6
-81 10 -150 7 -150 7 -150 119 -94 102 51 215 162 260 256 41 84 71 197 72
267 0 61 -25 183 -46 224 -8 16 -14 33 -14 38 0 19 -88 144 -127 180 -67 62
-200 139 -241 139 -11 0 -36 7 -55 15 -47 20 -190 19 -236 0z"/>
</g>
</svg>
